<svg
    viewBox="0 0 409 118"
    xmlns="http://www.w3.org/2000/svg"
>
    <title>es6pack</title>
    <desc>es6pack logo</desc>
    <g transform="translate(0, -3)">
        <g
            transform="translate(140.225397, 62.225397) rotate(45) translate(-140.225397, -62.225397) translate(96.225397, 18.225397)"
            fill="#FF0000"
        >
            <circle cx="77" cy="77" r="11"/>
            <circle cx="11" cy="44" r="11"/>
            <circle cx="44" cy="44" r="11"/>
            <circle cx="77" cy="44" r="11"/>
            <circle cx="11" cy="11" r="11"/>
            <circle cx="44" cy="77" r="11"/>
        </g>
        <path
            d="M189.475,69.07 L189.475,87.7 C189.475,90.1533456 189.455834,92.8941515 189.4175,95.9225 C189.379166,98.9508485 189.321667,101.959985 189.245,104.95 C189.168333,107.940015 189.072501,110.79582 188.9575,113.5175 C188.842499,116.23918 188.708334,118.558324 188.555,120.475 C190.701677,120.091665 192.42666,119.9 193.73,119.9 C195.03334,119.9 196.758323,120.091665 198.905,120.475 C198.751666,118.558324 198.617501,116.23918 198.5025,113.5175 C198.387499,110.79582 198.291667,107.940015 198.215,104.95 C198.138333,101.959985 198.080834,98.9508485 198.0425,95.9225 C198.004166,92.8941515 197.985,90.1533456 197.985,87.7 L197.985,80.455 L198.215,80.455 C201.818351,87.7383698 207.836625,91.38 216.27,91.38 C219.260015,91.38 222.249985,90.8241722 225.24,89.7125 C228.230015,88.6008278 230.894155,86.8566785 233.2325,84.48 C235.570845,82.1033214 237.468326,79.1133513 238.925,75.51 C240.381674,71.9066486 241.11,67.6516912 241.11,62.745 C241.11,57.8383088 240.439173,53.6025178 239.0975,50.0375 C237.755827,46.4724822 235.992511,43.5400115 233.8075,41.24 C231.622489,38.9399885 229.111681,37.2341722 226.275,36.1225 C223.438319,35.0108278 220.563348,34.455 217.65,34.455 C214.813319,34.455 212.283344,34.8766624 210.06,35.72 C207.836656,36.5633375 205.939175,37.6174937 204.3675,38.8825 C202.795825,40.1475063 201.511672,41.4891596 200.515,42.9075 C199.518328,44.3258404 198.751669,45.6483272 198.215,46.875 L197.985,46.875 C197.985,45.0349908 198.061666,43.1950092 198.215,41.355 C198.368334,39.5149908 198.598332,37.5983433 198.905,35.605 C196.758323,35.9883352 195.03334,36.18 193.73,36.18 C192.42666,36.18 190.701677,35.9883352 188.555,35.605 C188.708334,37.5983433 188.842499,39.9749862 188.9575,42.735 C189.072501,45.4950138 189.168333,48.3891515 189.245,51.4175 C189.321667,54.4458485 189.379166,57.493318 189.4175,60.56 C189.455834,63.626682 189.475,66.4633203 189.475,69.07 L189.475,69.07 Z M230.99,62.63 C230.99,66.0800172 230.66417,69.3191515 230.0125,72.3475 C229.36083,75.3758485 228.364173,78.020822 227.0225,80.2825 C225.680827,82.544178 223.994177,84.3074937 221.9625,85.5725 C219.930823,86.8375063 217.535014,87.47 214.775,87.47 C203.581611,87.47 197.985,79.4967464 197.985,63.55 C197.985,60.2533168 198.291664,57.1291814 198.905,54.1775 C199.518336,51.2258186 200.514993,48.6575109 201.895,46.4725 C203.275007,44.2874891 205.057489,42.5433398 207.2425,41.24 C209.427511,39.9366601 212.053318,39.285 215.12,39.285 C216.960009,39.285 218.838324,39.6299965 220.755,40.32 C222.671676,41.0100034 224.377493,42.2558243 225.8725,44.0575 C227.367507,45.8591757 228.594162,48.254985 229.5525,51.245 C230.510838,54.2350149 230.99,58.029977 230.99,62.63 L230.99,62.63 Z M281.935,61.595 L281.475,78.845 C280.17166,80.9916774 278.312512,82.8699919 275.8975,84.48 C273.482488,86.090008 270.818348,86.895 267.905,86.895 C265.374987,86.895 263.07501,85.9750092 261.005,84.135 C258.93499,82.2949908 257.9,79.5733513 257.9,75.97 C257.9,73.8233226 258.302496,72.0600069 259.1075,70.68 C259.912504,69.2999931 260.985827,68.1500046 262.3275,67.23 C263.669173,66.3099954 265.202491,65.5816693 266.9275,65.045 C268.652509,64.5083306 270.396658,64.0675017 272.16,63.7225 C273.923342,63.3774983 275.667491,63.0516682 277.3925,62.745 C279.117509,62.4383318 280.63166,62.0550023 281.935,61.595 L281.935,61.595 Z M253.53,41.125 L253.53,47.105 L254.795,47.105 C256.09834,44.6516544 258.072487,42.7350069 260.7175,41.355 C263.362513,39.9749931 266.218318,39.285 269.285,39.285 C271.585012,39.285 273.539992,39.687496 275.15,40.4925 C276.760008,41.297504 278.063328,42.3516601 279.06,43.655 C280.056672,44.9583398 280.784998,46.4916578 281.245,48.255 C281.705002,50.0183421 281.935,51.8583238 281.935,53.775 C281.935,54.9250057 281.820001,55.864163 281.59,56.5925 C281.359999,57.320837 280.689172,57.9533306 279.5775,58.49 C278.465828,59.0266693 276.740845,59.5441642 274.4025,60.0425 C272.064155,60.5408358 268.825021,61.1349965 264.685,61.825 C259.624975,62.6683375 255.657514,64.3549873 252.7825,66.885 C249.907486,69.4150126 248.47,72.979977 248.47,77.58 C248.47,79.8033444 248.910829,81.7774914 249.7925,83.5025 C250.674171,85.2275086 251.82416,86.7033272 253.2425,87.93 C254.66084,89.1566728 256.289991,90.0383307 258.13,90.575 C259.970009,91.1116693 261.848324,91.38 263.765,91.38 C267.67502,91.38 270.971653,90.7283398 273.655,89.425 C276.338347,88.1216601 279.059986,86.0900138 281.82,83.33 C282.050001,85.3233433 282.81666,86.9524937 284.12,88.2175 C285.42334,89.4825063 287.301654,90.115 289.755,90.115 C291.288341,90.115 292.687494,90.0000012 293.9525,89.77 C295.217506,89.5399988 296.271662,89.2333353 297.115,88.85 L297.115,86.32 C296.731665,86.5500011 296.329169,86.6841665 295.9075,86.7225 C295.485831,86.7608335 295.083335,86.78 294.7,86.78 C293.549994,86.78 292.687503,86.5116694 292.1125,85.975 C291.537497,85.4383306 291.096668,84.767504 290.79,83.9625 C290.483332,83.157496 290.310834,82.2375052 290.2725,81.2025 C290.234167,80.1674948 290.215,79.1900046 290.215,78.27 C290.215,73.4399758 290.291666,68.8591883 290.445,64.5275 C290.598334,60.1958117 290.675,55.8450218 290.675,51.475 C290.675,48.9449873 290.215005,46.6258439 289.295,44.5175 C288.374995,42.4091561 287.110008,40.6075075 285.5,39.1125 C283.889992,37.6174925 281.935012,36.467504 279.635,35.6625 C277.334989,34.857496 274.805014,34.455 272.045,34.455 C268.978318,34.455 265.988348,34.9149954 263.075,35.835 C260.161652,36.7550046 256.980017,38.5183203 253.53,41.125 L253.53,41.125 Z M303.649825,63.09 C303.649825,68.3033594 304.473983,72.7116487 306.122325,76.315 C307.770666,79.9183513 309.936478,82.850822 312.619825,85.1125 C315.303171,87.374178 318.312308,88.9841619 321.647325,89.9425 C324.982341,90.9008381 328.298141,91.38 331.594825,91.38 C335.274843,91.38 338.820641,90.7283398 342.232325,89.425 C345.644008,88.1216601 348.499813,86.5500092 350.799825,84.71 C350.876492,82.7933237 351.106489,80.9150092 351.489825,79.075 L350.914825,78.73 C349.918153,79.8800057 348.748998,80.9533283 347.407325,81.95 C346.065651,82.9466716 344.628166,83.809163 343.094825,84.5375 C341.561484,85.265837 339.989833,85.8408312 338.379825,86.2625 C336.769817,86.6841688 335.198166,86.895 333.664825,86.895 C327.148125,86.895 322.203175,84.8825201 318.829825,80.8575 C315.456474,76.8324799 313.769825,70.8717061 313.769825,62.975 C313.769825,59.4483157 314.133988,56.1708485 314.862325,53.1425 C315.590662,50.1141515 316.74065,47.4883444 318.312325,45.265 C319.883999,43.0416555 321.915646,41.2975063 324.407325,40.0325 C326.899004,38.7674937 329.869807,38.135 333.319825,38.135 C335.159834,38.135 336.846484,38.4224971 338.379825,38.9975 C339.913166,39.5725029 341.312318,40.3008289 342.577325,41.1825 C343.842331,42.0641711 344.93482,43.0224948 345.854825,44.0575 C346.774829,45.0925052 347.503155,46.1083283 348.039825,47.105 L348.959825,47.105 C349.266493,45.7249931 349.630656,44.4025063 350.052325,43.1375 C350.473993,41.8724937 350.953155,40.6650057 351.489825,39.515 C350.033151,38.2116601 347.637341,37.0425052 344.302325,36.0075 C340.967308,34.9724948 337.191512,34.455 332.974825,34.455 C329.294806,34.455 325.691509,35.0108278 322.164825,36.1225 C318.63814,37.2341722 315.514005,38.959155 312.792325,41.2975 C310.070644,43.635845 307.8665,46.6066487 306.179825,50.21 C304.49315,53.8133513 303.649825,58.1066418 303.649825,63.09 L303.649825,63.09 Z M361.589649,36.64 L361.589649,57.455 C361.589649,60.0616797 361.570483,62.898318 361.532149,65.965 C361.493816,69.031682 361.436316,72.059985 361.359649,75.05 C361.282982,78.0400149 361.18715,80.8766532 361.072149,83.56 C360.957149,86.2433467 360.822983,88.4666578 360.669649,90.23 C362.432991,90.0766659 364.157974,90 365.844649,90 C367.531324,90 369.256307,90.0766659 371.019649,90.23 C370.636314,86.9333168 370.38715,83.6558496 370.272149,80.3975 C370.157149,77.1391504 370.099649,73.7850172 370.099649,70.335 L370.099649,63.435 C370.099649,62.5149954 370.482979,62.055 371.249649,62.055 C371.556317,62.055 371.862981,62.1699988 372.169649,62.4 C372.476317,62.6300011 372.744648,62.8983318 372.974649,63.205 C374.354656,64.6616739 376.002973,66.5016555 377.919649,68.725 C379.836325,70.9483444 381.848805,73.3249873 383.957149,75.855 C386.065493,78.3850126 388.192972,80.9341538 390.339649,83.5025 C392.486327,86.0708462 394.402974,88.3133237 396.089649,90.23 C397.162988,90.0766659 398.197978,90 399.194649,90 L401.954649,90 L405.002149,90 C406.037154,90 407.206309,90.0766659 408.509649,90.23 C403.679625,85.0933076 398.945506,79.8800264 394.307149,74.59 C389.668793,69.2999735 385.164671,64.0100264 380.794649,58.72 C384.781336,54.8099804 388.978794,50.957519 393.387149,47.1625 C397.795505,43.367481 402.414625,39.5150195 407.244649,35.605 C405.941309,35.7583341 404.867987,35.8924994 404.024649,36.0075 C403.181312,36.1225006 402.337987,36.18 401.494649,36.18 C400.114642,36.18 398.65799,35.9883352 397.124649,35.605 C395.361307,37.6750103 393.406327,39.8599885 391.259649,42.16 C389.112972,44.4600115 387.023826,46.6258232 384.992149,48.6575 C382.960472,50.6891768 381.120491,52.471659 379.472149,54.005 C377.823808,55.538341 376.654653,56.5733306 375.964649,57.11 C375.044645,57.8000034 374.220486,58.4133306 373.492149,58.95 C372.763812,59.4866693 372.092986,59.755 371.479649,59.755 C370.559645,59.755 370.099649,59.0266739 370.099649,57.57 L370.099649,36.64 C370.099649,34.0333203 370.118816,31.196682 370.157149,28.13 C370.195483,25.063318 370.252982,22.0350149 370.329649,19.045 C370.406316,16.054985 370.502149,13.1991803 370.617149,10.4775 C370.73215,7.75581972 370.866315,5.43667625 371.019649,3.52 C368.872972,3.90333525 367.147989,4.095 365.844649,4.095 C364.541309,4.095 362.816327,3.90333525 360.669649,3.52 C360.822983,5.43667625 360.957149,7.75581972 361.072149,10.4775 C361.18715,13.1991803 361.282982,16.054985 361.359649,19.045 C361.436316,22.0350149 361.493816,25.063318 361.532149,28.13 C361.570483,31.196682 361.589649,34.0333203 361.589649,36.64 L361.589649,36.64 Z M26.59,38.135 C29.5800149,38.135 31.9949908,38.7866602 33.835,40.09 C35.6750092,41.3933399 37.1124948,43.0416567 38.1475,45.035 C39.1825052,47.0283433 39.8724983,49.1749885 40.2175,51.475 C40.5625017,53.7750115 40.735,55.9599897 40.735,58.03 C38.2816544,58.1066671 35.7516797,58.183333 33.145,58.26 C30.5383203,58.3366671 27.9700126,58.375 25.44,58.375 C22.9866544,58.375 20.4758462,58.3366671 17.9075,58.26 C15.3391538,58.183333 12.8666785,58.1066671 10.49,58.03 C10.6433341,55.9599897 11.0458301,53.755845 11.6975,51.4175 C12.3491699,49.079155 13.3074937,46.9325098 14.5725,44.9775 C15.8375063,43.0224902 17.4474902,41.3933399 19.4025,40.09 C21.3575098,38.7866602 23.7533191,38.135 26.59,38.135 L26.59,38.135 Z M0.025,64.7 C0.025,68.5333525 0.695826625,72.0983169 2.0375,75.395 C3.37917337,78.6916832 5.29582087,81.5474879 7.7875,83.9625 C10.2791791,86.3775121 13.2308163,88.2174937 16.6425,89.4825 C20.0541837,90.7475063 23.8299793,91.38 27.97,91.38 C31.6500184,91.38 35.1958163,90.7283399 38.6075,89.425 C42.0191837,88.1216602 44.8749885,86.5500092 47.175,84.71 L47.865,79.075 L47.29,78.73 C46.2933283,79.8800058 45.1241734,80.9533284 43.7825,81.95 C42.4408266,82.9466717 41.003341,83.809163 39.47,84.5375 C37.936659,85.265837 36.365008,85.8408312 34.755,86.2625 C33.1449919,86.6841688 31.573341,86.895 30.04,86.895 C26.8199839,86.895 23.9833456,86.3391722 21.53,85.2275 C19.0766544,84.1158278 17.0066751,82.6208427 15.32,80.7425 C13.6333249,78.8641573 12.3491711,76.6216797 11.4675,74.015 C10.5858289,71.4083203 10.145,68.610015 10.145,65.62 L10.145,64.125 C10.145,63.3583295 10.1833329,62.7833353 10.26,62.4 C12.7900126,62.323333 15.3008209,62.2466671 17.7925,62.17 C20.2841791,62.093333 22.7949873,62.055 25.325,62.055 C29.4650207,62.055 33.5666463,62.093333 37.63,62.17 C41.6933536,62.2466671 45.7949793,62.323333 49.935,62.4 C50.011667,61.6333295 50.0691665,60.885837 50.1075,60.1575 C50.1458335,59.429163 50.165,58.6816705 50.165,57.915 C50.165,54.6949839 49.6858381,51.6666809 48.7275,48.83 C47.7691619,45.9933192 46.2933433,43.5208439 44.3,41.4125 C42.3066567,39.3041561 39.8341814,37.6175063 36.8825,36.3525 C33.9308186,35.0874937 30.4233536,34.455 26.36,34.455 C17.7732904,34.455 11.2375224,37.1383065 6.7525,42.505 C2.26747757,47.8716935 0.025,55.2699529 0.025,64.7 L0.025,64.7 Z M61.1074242,79.535 L59.7274242,79.535 C59.7274242,80.6850058 59.47826,82.1224914 58.9799242,83.8475 C58.4815884,85.5725086 58.0024265,86.9333284 57.5424242,87.93 C59.1524322,88.8500046 61.1457456,89.6549966 63.5224242,90.345 C65.8991027,91.0350035 68.8507399,91.38 72.3774242,91.38 C75.5974403,91.38 78.4724115,90.9008381 81.0024242,89.9425 C83.5324368,88.9841619 85.6982485,87.6425086 87.4999242,85.9175 C89.3015999,84.1924914 90.6815861,82.2566774 91.6399242,80.11 C92.5982623,77.9633226 93.0774242,75.7783445 93.0774242,73.555 C93.0774242,70.3349839 92.4065976,67.8050092 91.0649242,65.965 C89.7232508,64.1249908 88.0557675,62.6875052 86.0624242,61.6525 C84.0690809,60.6174948 81.8841027,59.8125029 79.5074242,59.2375 C77.1307456,58.6624971 74.9457675,57.9916705 72.9524242,57.225 C70.9590809,56.4583295 69.2915976,55.4041734 67.9499242,54.0625 C66.6082508,52.7208266 65.9374242,50.8233456 65.9374242,48.37 C65.9374242,46.6833249 66.2440878,45.2266728 66.8574242,44 C67.4707606,42.7733272 68.2374196,41.7766705 69.1574242,41.01 C70.0774288,40.2433295 71.1124184,39.6683353 72.2624242,39.285 C73.4124299,38.9016648 74.5624184,38.71 75.7124242,38.71 C78.3191039,38.71 80.504082,39.4383261 82.2674242,40.895 C84.0307663,42.351674 85.2190878,43.9999908 85.8324242,45.84 L87.2124242,45.84 C87.3657583,44.9199954 87.7107548,43.6166751 88.2474242,41.93 C88.7840935,40.2433249 89.3590878,38.8250058 89.9724242,37.675 C88.209082,37.0616636 86.349934,36.3716705 84.3949242,35.605 C82.4399144,34.8383295 80.044105,34.455 77.2074242,34.455 C74.1407422,34.455 71.4191027,34.8958289 69.0424242,35.7775 C66.6657456,36.6591711 64.6724322,37.866659 63.0624242,39.4 C61.4524161,40.933341 60.2257617,42.7541561 59.3824242,44.8625 C58.5390866,46.9708439 58.1174242,49.2899874 58.1174242,51.82 C58.1174242,55.0400161 58.7882508,57.5699908 60.1299242,59.41 C61.4715976,61.2500092 63.1390809,62.7258278 65.1324242,63.8375 C67.1257675,64.9491722 69.3107456,65.8116636 71.6874242,66.425 C74.0641027,67.0383364 76.2490809,67.747496 78.2424242,68.5525 C80.2357675,69.357504 81.9032508,70.3924937 83.2449242,71.6575 C84.5865976,72.9225063 85.2574242,74.7433215 85.2574242,77.12 C85.2574242,78.8066751 84.9507606,80.3016602 84.3374242,81.605 C83.7240878,82.9083399 82.8999294,83.9816625 81.8649242,84.825 C80.829919,85.6683376 79.6415976,86.3199977 78.2999242,86.78 C76.9582508,87.2400023 75.5590981,87.47 74.1024242,87.47 C72.4924161,87.47 70.9782646,87.2016694 69.5599242,86.665 C68.1415838,86.1283307 66.8765964,85.457504 65.7649242,84.6525 C64.653252,83.847496 63.6949282,82.9850046 62.8899242,82.065 C62.0849202,81.1449954 61.4907594,80.3016705 61.1074242,79.535 L61.1074242,79.535 Z"
            fill="#000000"
        />
    </g>
</svg>